<?xml version="1.0" encoding="UTF-8" standalone="no"?>
<!DOCTYPE svg PUBLIC "-//W3C//DTD SVG 1.1//EN" "http://www.w3.org/Graphics/SVG/1.1/DTD/svg11.dtd">
<svg xmlns="http://www.w3.org/2000/svg" enable-background="new 0 0 101.3 102" viewBox="0 0 101.3 102" x="0px" y="0px">
		<g>
				<path d="M41.3 67.8c7.8-5.4 9.8-16.1 4.5-23.9l-14.2 9.7h0c-3.9 2.7-9.3 1.7-11.9-2.2c-2.7-3.9-1.7-9.3 2.2-11.9 c0 0 0 0 0 0l12.9-8.9l8.3-5.7C51 19.5 53 8.8 47.7 1l-14.2 9.7L12.2 25.2c0 0 0 0 0 0c-11.7 8-14.7 24.1-6.7 35.8 C13.6 72.8 29.6 75.8 41.3 67.8L41.3 67.8z" fill="#fff" class="brand-svg" />
				<path d="M60 34.2L60 34.2L60 34.2c0 0-0.1 0-0.1 0.1L60 34.2c-7.8 5.4-9.8 16-4.5 23.9l14.2-9.7l0 0 c3.9-2.7 9.3-1.7 11.9 2.2c2.7 3.9 1.7 9.3-2.2 11.9l0 0l-12.9 8.9l-8.3 5.7c-7.8 5.4-9.8 16.1-4.5 23.9l14.2-9.7l21.3-14.6l0 0 c11.7-8 14.7-24.1 6.7-35.8C87.8 29.2 71.7 26.2 60 34.2z" fill="#fff" class="brand-svg" />
		</g>
</svg>